<svg width="32" height="32" viewBox="0 0 32 32" fill="none" xmlns="http://www.w3.org/2000/svg">
  <rect x="4" y="4" width="10" height="24" rx="2.5" fill="#1c6a58" />
  <rect x="18" y="12" width="10" height="16" rx="2.5" fill="#1c6a58" fill-opacity="0.8" />
  <g transform="translate(17, 1)">
    <svg width="12" height="12" viewBox="0 0 24 24" fill="#f8a57d">
      <path d="M8.5 14.5A2.5 2.5 0 0 0 11 12c0-1.38-.5-2-1-3-1.072-2.143-.224-4.054 2-6 .5 2.5 2 4.9 4 6.5 2 1.6 3 3.5 3 5.5a7 7 0 1 1-14 0c0-1.153.433-2.294 1-3a2.5 2.5 0 0 0 2.5 2.5z" />
    </svg>
  </g>
</svg>
